<?xml version="1.0" encoding="iso-8859-1"?>
<!-- Generator: Adobe Illustrator 19.0.0, SVG Export Plug-In . SVG Version: 6.00 Build 0)  -->
<svg version="1.1" id="Capa_1" xmlns="http://www.w3.org/2000/svg" xmlns:xlink="http://www.w3.org/1999/xlink" x="0px" y="0px"
	 viewBox="0 0 512 512" style="enable-background:new 0 0 512 512;" xml:space="preserve">
<g>
	<polygon style="fill:#FFFFFF;" points="316.8,504 195.2,504 214.4,440 297.6,440 	"/>
	<rect x="8" y="372" style="fill:#FFFFFF;" width="496" height="68"/>
	<rect x="8" y="8" style="fill:#FFFFFF;" width="496" height="364"/>
</g>
<rect x="40" y="40" style="fill:#D3D7DA;" width="432" height="300"/>
<g>
	<rect x="200.8" y="397.6" style="fill:#193651;" width="16" height="16"/>
	<rect x="248" y="397.6" style="fill:#193651;" width="16" height="16"/>
	<rect x="295.2" y="397.6" style="fill:#193651;" width="16" height="16"/>
	<path style="fill:#193651;" d="M0,0v448h204l-14.4,48h-14.4v16h162.4v-16h-14.4l-14.4-48H512V0H0z M206.4,496l14.4-48H292l14.4,48
		H206.4z M496,432H16v-52h480V432z M496,364H16V16h480V364z"/>
</g>
<path style="fill:#F16051;" d="M347.2,158.4C347.2,208.8,256,312,256,312s-91.2-103.2-91.2-153.6s40.8-91.2,91.2-91.2
	S347.2,108,347.2,158.4z"/>
<circle style="fill:#FFFFFF;" cx="256" cy="157.6" r="54.4"/>
<g>
</g>
<g>
</g>
<g>
</g>
<g>
</g>
<g>
</g>
<g>
</g>
<g>
</g>
<g>
</g>
<g>
</g>
<g>
</g>
<g>
</g>
<g>
</g>
<g>
</g>
<g>
</g>
<g>
</g>
</svg>
